# xmcd
#
# Track frame offsets:
#	150
#	19071
#	35193
#	54854
#	72932
#	88262
#	106454
#	126670
#	153135
#	169125
#	195469
#	213629
#	230230
#	249678
#	266017
#	292081
#
# Disc length: 4161
#
# Revision: 2
# Processed by: cddbd v1.5.1PL0 Copyright (c) Steve Scherf et al.
# Submitted via: EasyCDDAExtractor 7.0.9.1
# Normalized: r1:DSETVAR1
#
DISCID=f8103f10
DTITLE=Various Artist - Kuschel Rock 13 CD 2
DYEAR=1900
DGENRE=Pop
TTITLE0=Madonna - The Power Of Good Bye
TTITLE1=Backstreet Boys - I Want It That Way
TTITLE2=Whitney Housten - You'll Never Stand Alone
TTITLE3=Sasha - If You Believe
TTITLE4=Emilia - Big Big World
TTITLE5=Eros Ramazzotti - Adesso Tu
TTITLE6=Amanda Marshall - Believe In You
TTITLE7=Bon Jovi - Always
TTITLE8=B*Witched - Blame It On The Weatherman
TTITLE9=Boyz II Man - End Of The Road
TTITLE10=Brandy and Monica - The Boy Is Mine
TTITLE11=Malaya - Tell Me Why
TTITLE12=Janet Jackson - Every Time
TTITLE13=Jessica - How Will I Know
TTITLE14=Michael Jackson - You Are Not Alone
TTITLE15=Xavier Naidoo - Sie sieht mich nicht
EXTD=
EXTT0=
EXTT1=
EXTT2=
EXTT3=
EXTT4=
EXTT5=
EXTT6=
EXTT7=
EXTT8=
EXTT9=
EXTT10=
EXTT11=
EXTT12=
EXTT13=
EXTT14=
EXTT15=
PLAYORDER=
